# Blender v2.93.9 OBJ File: ''
# www.blender.org
o Cylinder_Cylinder.001
v 0.000000 -1.010000 0.000000
v 0.000000 1.010000 0.000000
v 0.000000 -1.010000 -0.100000
v 0.000000 1.010000 -0.100000
v 0.019509 -1.010000 -0.098079
v 0.019509 1.010000 -0.098079
v 0.038268 -1.010000 -0.092388
v 0.038268 1.010000 -0.092388
v 0.055557 -1.010000 -0.083147
v 0.055557 1.010000 -0.083147
v 0.070711 -1.010000 -0.070711
v 0.070711 1.010000 -0.070711
v 0.083147 -1.010000 -0.055557
v 0.083147 1.010000 -0.055557
v 0.092388 -1.010000 -0.038268
v 0.092388 1.010000 -0.038268
v 0.098079 -1.010000 -0.019509
v 0.098079 1.010000 -0.019509
v 0.100000 -1.010000 0.000000
v 0.100000 1.010000 0.000000
v 0.098079 -1.010000 0.019509
v 0.098079 1.010000 0.019509
v 0.092388 -1.010000 0.038268
v 0.092388 1.010000 0.038268
v 0.083147 -1.010000 0.055557
v 0.083147 1.010000 0.055557
v 0.070711 -1.010000 0.070711
v 0.070711 1.010000 0.070711
v 0.055557 -1.010000 0.083147
v 0.055557 1.010000 0.083147
v 0.038268 -1.010000 0.092388
v 0.038268 1.010000 0.092388
v 0.019509 -1.010000 0.098079
v 0.019509 1.010000 0.098079
v -0.000000 -1.010000 0.100000
v -0.000000 1.010000 0.100000
v -0.019509 -1.010000 0.098079
v -0.019509 1.010000 0.098079
v -0.038268 -1.010000 0.092388
v -0.038268 1.010000 0.092388
v -0.055557 -1.010000 0.083147
v -0.055557 1.010000 0.083147
v -0.070711 -1.010000 0.070711
v -0.070711 1.010000 0.070711
v -0.083147 -1.010000 0.055557
v -0.083147 1.010000 0.055557
v -0.092388 -1.010000 0.038268
v -0.092388 1.010000 0.038268
v -0.098079 -1.010000 0.019509
v -0.098079 1.010000 0.019509
v -0.100000 -1.010000 -0.000000
v -0.100000 1.010000 -0.000000
v -0.098079 -1.010000 -0.019509
v -0.098079 1.010000 -0.019509
v -0.092388 -1.010000 -0.038268
v -0.092388 1.010000 -0.038268
v -0.083147 -1.010000 -0.055557
v -0.083147 1.010000 -0.055557
v -0.070711 -1.010000 -0.070711
v -0.070711 1.010000 -0.070711
v -0.055557 -1.010000 -0.083147
v -0.055557 1.010000 -0.083147
v -0.038268 -1.010000 -0.092388
v -0.038268 1.010000 -0.092388
v -0.019509 -1.010000 -0.098079
v -0.019509 1.010000 -0.098079
vn 0.0000 -1.0000 0.0000
vn 0.0000 1.0000 0.0000
vn 0.0980 0.0000 -0.9952
vn 0.2903 0.0000 -0.9569
vn 0.4714 0.0000 -0.8819
vn 0.6344 0.0000 -0.7730
vn 0.7730 0.0000 -0.6344
vn 0.8819 0.0000 -0.4714
vn 0.9569 0.0000 -0.2903
vn 0.9952 0.0000 -0.0980
vn 0.9952 0.0000 0.0980
vn 0.9569 0.0000 0.2903
vn 0.8819 0.0000 0.4714
vn 0.7730 0.0000 0.6344
vn 0.6344 0.0000 0.7730
vn 0.4714 0.0000 0.8819
vn 0.2903 0.0000 0.9569
vn 0.0980 0.0000 0.9952
vn -0.0980 0.0000 0.9952
vn -0.2903 0.0000 0.9569
vn -0.4714 0.0000 0.8819
vn -0.6344 0.0000 0.7730
vn -0.7730 0.0000 0.6344
vn -0.8819 0.0000 0.4714
vn -0.9569 0.0000 0.2903
vn -0.9952 0.0000 0.0980
vn -0.9952 0.0000 -0.0980
vn -0.9569 0.0000 -0.2903
vn -0.8819 0.0000 -0.4714
vn -0.7730 0.0000 -0.6344
vn -0.6344 0.0000 -0.7730
vn -0.4714 0.0000 -0.8819
vn -0.2903 0.0000 -0.9569
vn -0.0980 0.0000 -0.9952
s off
f 1//1 3//1 5//1
f 2//2 6//2 4//2
f 4//3 5//3 3//3
f 1//1 5//1 7//1
f 2//2 8//2 6//2
f 6//4 7//4 5//4
f 1//1 7//1 9//1
f 2//2 10//2 8//2
f 8//5 9//5 7//5
f 1//1 9//1 11//1
f 2//2 12//2 10//2
f 10//6 11//6 9//6
f 1//1 11//1 13//1
f 2//2 14//2 12//2
f 12//7 13//7 11//7
f 1//1 13//1 15//1
f 2//2 16//2 14//2
f 14//8 15//8 13//8
f 1//1 15//1 17//1
f 2//2 18//2 16//2
f 16//9 17//9 15//9
f 1//1 17//1 19//1
f 2//2 20//2 18//2
f 18//10 19//10 17//10
f 1//1 19//1 21//1
f 2//2 22//2 20//2
f 20//11 21//11 19//11
f 1//1 21//1 23//1
f 2//2 24//2 22//2
f 22//12 23//12 21//12
f 1//1 23//1 25//1
f 2//2 26//2 24//2
f 24//13 25//13 23//13
f 1//1 25//1 27//1
f 2//2 28//2 26//2
f 26//14 27//14 25//14
f 1//1 27//1 29//1
f 2//2 30//2 28//2
f 28//15 29//15 27//15
f 1//1 29//1 31//1
f 2//2 32//2 30//2
f 30//16 31//16 29//16
f 1//1 31//1 33//1
f 2//2 34//2 32//2
f 32//17 33//17 31//17
f 1//1 33//1 35//1
f 2//2 36//2 34//2
f 34//18 35//18 33//18
f 1//1 35//1 37//1
f 2//2 38//2 36//2
f 36//19 37//19 35//19
f 1//1 37//1 39//1
f 2//2 40//2 38//2
f 38//20 39//20 37//20
f 1//1 39//1 41//1
f 2//2 42//2 40//2
f 40//21 41//21 39//21
f 1//1 41//1 43//1
f 2//2 44//2 42//2
f 42//22 43//22 41//22
f 1//1 43//1 45//1
f 2//2 46//2 44//2
f 44//23 45//23 43//23
f 1//1 45//1 47//1
f 2//2 48//2 46//2
f 46//24 47//24 45//24
f 1//1 47//1 49//1
f 2//2 50//2 48//2
f 48//25 49//25 47//25
f 1//1 49//1 51//1
f 2//2 52//2 50//2
f 50//26 51//26 49//26
f 1//1 51//1 53//1
f 2//2 54//2 52//2
f 52//27 53//27 51//27
f 1//1 53//1 55//1
f 2//2 56//2 54//2
f 54//28 55//28 53//28
f 1//1 55//1 57//1
f 2//2 58//2 56//2
f 56//29 57//29 55//29
f 1//1 57//1 59//1
f 2//2 60//2 58//2
f 58//30 59//30 57//30
f 1//1 59//1 61//1
f 2//2 62//2 60//2
f 60//31 61//31 59//31
f 1//1 61//1 63//1
f 2//2 64//2 62//2
f 62//32 63//32 61//32
f 1//1 63//1 65//1
f 2//2 66//2 64//2
f 64//33 65//33 63//33
f 1//1 65//1 3//1
f 2//2 4//2 66//2
f 66//34 3//34 65//34
f 4//3 6//3 5//3
f 6//4 8//4 7//4
f 8//5 10//5 9//5
f 10//6 12//6 11//6
f 12//7 14//7 13//7
f 14//8 16//8 15//8
f 16//9 18//9 17//9
f 18//10 20//10 19//10
f 20//11 22//11 21//11
f 22//12 24//12 23//12
f 24//13 26//13 25//13
f 26//14 28//14 27//14
f 28//15 30//15 29//15
f 30//16 32//16 31//16
f 32//17 34//17 33//17
f 34//18 36//18 35//18
f 36//19 38//19 37//19
f 38//20 40//20 39//20
f 40//21 42//21 41//21
f 42//22 44//22 43//22
f 44//23 46//23 45//23
f 46//24 48//24 47//24
f 48//25 50//25 49//25
f 50//26 52//26 51//26
f 52//27 54//27 53//27
f 54//28 56//28 55//28
f 56//29 58//29 57//29
f 58//30 60//30 59//30
f 60//31 62//31 61//31
f 62//32 64//32 63//32
f 64//33 66//33 65//33
f 66//34 4//34 3//34
o Cone_Cone.001
v 0.000000 0.990000 0.000000
v 0.000000 0.990000 -0.400000
v 0.054625 0.990000 -0.392314
v 0.107151 0.990000 -0.369552
v 0.155560 0.990000 -0.332588
v 0.197990 0.990000 -0.282843
v 0.232812 0.990000 -0.222228
v 0.258686 0.990000 -0.153073
v 0.274620 0.990000 -0.078036
v 0.280000 0.990000 0.000000
v 0.274620 0.990000 0.078036
v 0.258686 0.990000 0.153073
v 0.232812 0.990000 0.222228
v 0.197990 0.990000 0.282843
v 0.155560 0.990000 0.332588
v 0.107151 0.990000 0.369552
v 0.054625 0.990000 0.392314
v -0.000000 0.990000 0.400000
v -0.054625 0.990000 0.392314
v -0.107151 0.990000 0.369552
v -0.155560 0.990000 0.332588
v -0.197990 0.990000 0.282843
v -0.232811 0.990000 0.222228
v -0.258686 0.990000 0.153073
v -0.274620 0.990000 0.078036
v -0.280000 0.990000 -0.000000
v -0.274620 0.990000 -0.078036
v -0.258686 0.990000 -0.153073
v -0.232812 0.990000 -0.222228
v -0.197990 0.990000 -0.282843
v -0.155560 0.990000 -0.332588
v -0.107151 0.990000 -0.369552
v -0.054625 0.990000 -0.392314
v 0.000000 1.590000 0.000000
vt 0.750000 0.250000
vt 0.750000 0.490000
vt 0.796822 0.485388
vt 0.250000 0.490000
vt 0.250000 0.250000
vt 0.296822 0.485388
vt 0.841844 0.471731
vt 0.341844 0.471731
vt 0.883337 0.449553
vt 0.383337 0.449553
vt 0.919706 0.419706
vt 0.419706 0.419706
vt 0.949553 0.383337
vt 0.449553 0.383337
vt 0.971731 0.341844
vt 0.471731 0.341844
vt 0.985388 0.296822
vt 0.485388 0.296822
vt 0.990000 0.250000
vt 0.490000 0.250000
vt 0.985388 0.203178
vt 0.485388 0.203178
vt 0.971731 0.158156
vt 0.471731 0.158156
vt 0.949553 0.116663
vt 0.449553 0.116663
vt 0.919706 0.080294
vt 0.419706 0.080294
vt 0.883337 0.050447
vt 0.383337 0.050447
vt 0.841844 0.028269
vt 0.341844 0.028269
vt 0.796822 0.014612
vt 0.296822 0.014612
vt 0.750000 0.010000
vt 0.250000 0.010000
vt 0.703178 0.014612
vt 0.203178 0.014612
vt 0.658156 0.028269
vt 0.158156 0.028269
vt 0.616663 0.050447
vt 0.116663 0.050447
vt 0.580294 0.080294
vt 0.080294 0.080294
vt 0.550447 0.116663
vt 0.050447 0.116663
vt 0.528269 0.158156
vt 0.028269 0.158156
vt 0.514612 0.203178
vt 0.014612 0.203178
vt 0.510000 0.250000
vt 0.010000 0.250000
vt 0.514612 0.296822
vt 0.014612 0.296822
vt 0.528269 0.341844
vt 0.028269 0.341844
vt 0.550447 0.383337
vt 0.050447 0.383337
vt 0.580294 0.419706
vt 0.080294 0.419706
vt 0.616663 0.449553
vt 0.116663 0.449553
vt 0.658156 0.471731
vt 0.158156 0.471731
vt 0.703178 0.485388
vt 0.203178 0.485388
vn 0.0000 -1.0000 0.0000
vn 0.1163 0.5509 -0.8264
vn 0.3355 0.5367 -0.7742
vn 0.5209 0.5132 -0.6822
vn 0.6647 0.4866 -0.5669
vn 0.7690 0.4620 -0.4418
vn 0.8400 0.4423 -0.3143
vn 0.8837 0.4289 -0.1876
vn 0.9044 0.4221 -0.0624
vn 0.9044 0.4221 0.0624
vn 0.8837 0.4289 0.1876
vn 0.8400 0.4423 0.3143
vn 0.7690 0.4620 0.4418
vn 0.6647 0.4866 0.5669
vn 0.5209 0.5132 0.6822
vn 0.3355 0.5367 0.7742
vn 0.1163 0.5509 0.8264
vn -0.1163 0.5509 0.8264
vn -0.3355 0.5367 0.7742
vn -0.5209 0.5132 0.6822
vn -0.6647 0.4866 0.5669
vn -0.7690 0.4620 0.4418
vn -0.8400 0.4423 0.3143
vn -0.8837 0.4289 0.1876
vn -0.9044 0.4221 0.0624
vn -0.9044 0.4221 -0.0624
vn -0.8837 0.4289 -0.1876
vn -0.8400 0.4423 -0.3143
vn -0.7690 0.4620 -0.4418
vn -0.6647 0.4866 -0.5669
vn -0.5209 0.5132 -0.6822
vn -0.3355 0.5367 -0.7742
vn -0.1163 0.5509 -0.8264
s off
f 67/1/35 68/2/35 69/3/35
f 68/4/36 100/5/36 69/6/36
f 67/1/35 69/3/35 70/7/35
f 69/6/37 100/5/37 70/8/37
f 67/1/35 70/7/35 71/9/35
f 70/8/38 100/5/38 71/10/38
f 67/1/35 71/9/35 72/11/35
f 71/10/39 100/5/39 72/12/39
f 67/1/35 72/11/35 73/13/35
f 72/12/40 100/5/40 73/14/40
f 67/1/35 73/13/35 74/15/35
f 73/14/41 100/5/41 74/16/41
f 67/1/35 74/15/35 75/17/35
f 74/16/42 100/5/42 75/18/42
f 67/1/35 75/17/35 76/19/35
f 75/18/43 100/5/43 76/20/43
f 67/1/35 76/19/35 77/21/35
f 76/20/44 100/5/44 77/22/44
f 67/1/35 77/21/35 78/23/35
f 77/22/45 100/5/45 78/24/45
f 67/1/35 78/23/35 79/25/35
f 78/24/46 100/5/46 79/26/46
f 67/1/35 79/25/35 80/27/35
f 79/26/47 100/5/47 80/28/47
f 67/1/35 80/27/35 81/29/35
f 80/28/48 100/5/48 81/30/48
f 67/1/35 81/29/35 82/31/35
f 81/30/49 100/5/49 82/32/49
f 67/1/35 82/31/35 83/33/35
f 82/32/50 100/5/50 83/34/50
f 67/1/35 83/33/35 84/35/35
f 83/34/51 100/5/51 84/36/51
f 67/1/35 84/35/35 85/37/35
f 84/36/52 100/5/52 85/38/52
f 67/1/35 85/37/35 86/39/35
f 85/38/53 100/5/53 86/40/53
f 67/1/35 86/39/35 87/41/35
f 86/40/54 100/5/54 87/42/54
f 67/1/35 87/41/35 88/43/35
f 87/42/55 100/5/55 88/44/55
f 67/1/35 88/43/35 89/45/35
f 88/44/56 100/5/56 89/46/56
f 67/1/35 89/45/35 90/47/35
f 89/46/57 100/5/57 90/48/57
f 67/1/35 90/47/35 91/49/35
f 90/48/58 100/5/58 91/50/58
f 67/1/35 91/49/35 92/51/35
f 91/50/59 100/5/59 92/52/59
f 67/1/35 92/51/35 93/53/35
f 92/52/60 100/5/60 93/54/60
f 67/1/35 93/53/35 94/55/35
f 93/54/61 100/5/61 94/56/61
f 67/1/35 94/55/35 95/57/35
f 94/56/62 100/5/62 95/58/62
f 67/1/35 95/57/35 96/59/35
f 95/58/63 100/5/63 96/60/63
f 67/1/35 96/59/35 97/61/35
f 96/60/64 100/5/64 97/62/64
f 67/1/35 97/61/35 98/63/35
f 97/62/65 100/5/65 98/64/65
f 67/1/35 98/63/35 99/65/35
f 98/64/66 100/5/66 99/66/66
f 67/1/35 99/65/35 68/2/35
f 99/66/67 100/5/67 68/4/67
